<?xml version="1.0" encoding="UTF-8"?>
<svg xmlns="http://www.w3.org/2000/svg" width="512" height="512" viewBox="0 0 512 512" fill="none">
  <g clip-path="url(#clip0)">
    <rect width="512" height="512" rx="25" fill="#222222"></rect>
    <rect x="22" y="142" width="202.223" height="134.815" rx="18" fill="#5B5B5B" fill-opacity="0.28" stroke="#0AE6CE" stroke-width="16"></rect>
    <rect x="287.815" y="142" width="202.223" height="134.815" rx="16" fill="#5B5B5B" fill-opacity="0.28" stroke="#0AE6CE" stroke-width="16"></rect>
    <path d="M287.815 209.408C287.815 191.847 273.579 187.786 256.019 187.786C238.458 187.786 224.223 191.847 224.223 209.408" stroke="#0AE6CE" stroke-width="7"></path>
    <path d="M46.7683 208.216L74.3496 175.565" stroke="white" stroke-opacity="0.56"></path>
    <path d="M320.905 208.216L348.486 175.565" stroke="white" stroke-opacity="0.56"></path>
    <line x1="43.0104" y1="232.615" x2="101.065" y2="162.286" stroke="white" stroke-opacity="0.56"></line>
    <line x1="315.813" y1="232.61" x2="375.205" y2="162.281" stroke="white" stroke-opacity="0.56"></line>
    <path d="M54.1692 423.354C54.1692 427.646 57.3077 430.923 61.5538 430.923C65.9385 430.923 69.1231 427.646 69.1231 423.354C69.1231 419.2 65.9385 415.969 61.5538 415.969C57.3077 415.969 54.1692 419.2 54.1692 423.354ZM99.6172 439.277L139.263 357.862L134.602 355.508L94.8634 437.2L99.6172 439.277ZM191.819 427.692L189.327 423.585C186.604 425.015 183.511 425.938 179.819 425.938C172.619 425.938 169.85 422.754 169.85 417.169V386.338H186.142L186.927 381.538H169.85V369.677L164.127 370.369V381.538H152.681V386.338H164.127V417.308C164.127 425.108 169.942 430.923 179.681 430.923C183.558 430.923 188.634 429.769 191.819 427.692ZM233.159 365.708C219.083 365.708 206.759 376.877 206.759 398.292C206.759 419.431 218.713 430.923 233.621 430.923C242.436 430.923 248.298 427.969 251.898 424.508L248.575 420.262C245.252 423.031 240.821 425.477 233.529 425.477C222.083 425.477 212.898 418.277 212.898 398.292C212.898 377.754 222.683 371.062 233.806 371.062C238.652 371.062 243.175 372.262 247.329 375.769L250.929 371.662C245.99 367.738 241.19 365.708 233.159 365.708ZM271.315 361.369L265.592 362.062V430H271.315V394.138C273.807 390.308 279.392 385.415 285.669 385.415C292.084 385.415 295.177 388.138 295.177 393.908V430H300.9V394.923C300.9 386.015 296.884 380.662 287.146 380.662C281.331 380.662 275.054 383.431 271.315 388.692V361.369ZM353.871 420.446V395.892C353.871 386.754 347.963 380.662 336.609 380.662C332.132 380.662 327.517 381.4 321.702 383.569L323.363 388.277C328.394 386.477 332.502 385.831 335.779 385.831C343.255 385.831 347.917 388.508 347.917 396.077V400.785H340.579C325.948 400.785 318.102 406.185 318.102 416.015C318.102 425.062 323.917 430.923 333.517 430.923C339.886 430.923 345.102 428.523 348.471 424C349.625 428.431 352.763 430.415 356.455 430.969L358.025 426.769C355.209 425.938 353.871 424.415 353.871 420.446ZM334.625 426.354C327.655 426.354 324.425 422.938 324.425 416.2C324.425 409.554 328.394 405.169 339.886 405.169H347.917V419.015C344.686 423.631 339.886 426.354 334.625 426.354ZM407.765 380.569C398.719 380.569 393.919 385.277 390.134 393.169L389.073 381.538H376.796V386.385H384.688V425.2H376.796V430H400.38V425.2H390.411V402.677C393.873 391.185 399.227 386.062 407.073 386.062C407.488 386.062 407.857 386.062 408.227 386.108L408.134 387.308V396.769H413.673L414.319 381.538C412.103 380.985 410.303 380.569 407.765 380.569ZM447.305 425.708C441.582 425.708 436.459 423.631 432.675 420.4L429.121 424.6C432.998 427.969 438.721 430.923 447.259 430.923C457.044 430.923 466.967 427.185 466.967 416.938C466.967 407.985 460.644 404.615 451.136 402.077C441.259 399.446 437.844 397.738 437.844 392.892C437.844 388.785 440.89 385.738 449.428 385.738C456.121 385.738 460.136 387.631 463.69 390.123L466.367 385.877C462.536 383.015 456.952 380.662 449.382 380.662C439.275 380.662 431.798 385.369 431.798 393.354C431.798 401.754 438.352 404.523 448.782 407.062C459.213 409.6 460.552 412.323 460.552 417.077C460.552 422.246 455.567 425.708 447.305 425.708Z" fill="#0AE6CE"></path>
  </g>
  <defs>
    <clipPath id="clip0">
      <rect width="512" height="512" fill="white"></rect>
    </clipPath>
  </defs>
</svg>
